<?xml version="1.0" encoding="UTF-8"?>
<svg id="Layer_2" data-name="Layer 2" xmlns="http://www.w3.org/2000/svg" viewBox="0 0 512.16 157.75">
  <defs>
    <style>
      .cls-1 {
        fill: #fff;
      }
    </style>
  </defs>
  <g id="Layer_1-2" data-name="Layer 1">
    <g>
      <path class="cls-1" d="M463.86,7.23c2.91,2.95,2.59,5.94,1.89,9.71-3.18,16.95-17.33,44.49-23.56,62.43-4.86,13.99-17.33,47.1-13.55,60.61.79,2.81,4.15,2.93,6.43,4.03.9,7.41-11.09,11.47-17.26,10.82-15.43-1.64-13.36-18.59-11.62-29.94-10.74,12.38-21.59,28.36-39.51,29.98-34.18,3.1-33.5-26.89-24.49-50.98l-16.96,8.53c-8.46,21.89-35.51,52.37-61.37,38.32-9.65-5.24-10.31-14.09-12.16-23.85-6.65,12.99-32.48,37.55-46.02,21.03-13.09-15.98,6.6-39.91,13.37-54.66,4.88-10.62,7.59-14.4-6.26-17.43-11.17,24.43-38.25,73.31-67.34,77.84-70.53,10.98-24.71-112.67,27.47-95.99,23.56,7.53,3.47,40.89-8.81,50.64-9.71,7.71-20.93,9.84-32.98,11.02-3.6,14.33,6.57,22.96,20.79,18.79,10.12-2.97,23.4-19.85,29.5-28.5,3.89-5.51,21.53-33.63,21.59-38.42.02-2.13-3.88-3.85-4.6-7.01-2.43-10.73,6.04-25.97,18.06-20.06,9.73,4.78.55,18.47,2.14,20.8,12.33,3.87,31.41,2.7,24.08,21.95-4.69,12.31-13.67,24.59-17.94,38.06-.81,2.56-3.92,11.89-1.6,13.53,7.35,1.96,12.93-6.06,16.89-11.24,13.67-17.86,15.78-37.75,29.2-53.8,24.8-29.67,62.56-22.66,61.02,20.02-.06,1.73-2.39,7.29.43,6.44,4.39-1.32,14.15-12.01,16.93-16.08,6.39-9.35,27.69-57.5,27.24-67.26-.28-6.06-7.49-10.86,5.32-14.17,7.44-1.92,16.1,1.96,17.05,10,3.15,26.48-30.81,76.1-34.77,107.28-2.23,17.62,1.87,26.36,19.06,15.06,14.03-9.23,22.2-25.31,30.86-39.14,13.02-28.51,22.29-58.67,32.8-88.2,3.69-5.06,14.55-4.32,18.69-.12ZM167.2,68.89c-6.44-.32-11.03,5.17-14.97,9.53-8.2,9.05-14.2,20.34-19.03,31.46,18.43-.93,32.88-23.93,33.99-40.99ZM308.17,104.89c6.79-9.1,9.43-48.98-9.91-32.44-11.79,10.09-6.56,31.05,9.91,32.44ZM304.21,112.9c-10.11-.78-19.89-7.52-23.5-17.01-7.7,7.44-17.89,49.6,1.52,44.54,8.7-2.27,18.38-19.67,21.98-27.54Z"/>
      <path class="cls-1" d="M30.21,133.88l33.51-4.98c14.21-.23,39.88.65,38.48,20.47-.15,2.19-1.19,7.94-3.63,8.38-.85.15-13.21-4.75-16.33-5.39-13.9-2.85-28.45-2.94-42.52-1.45-7.99.84-29.38,6.75-35.26,4.23-5.33-2.28-4.83-10.54-3.81-15.3,1.81-8.47,25.45-32.95,32.53-40.47,24.76-26.26,53.03-49.38,75.02-77.98-10.86.89-21.59,1.54-32.53,1.55-3.13,0-6.28-1.14-9.99-1.1-9.29.11-17.86,1.95-20.59,11.94-12.46-.72-11.97-17.25-4.27-24.77,11.22-10.96,28.36-4.77,41.9-4.12,9.23.44,19.7.03,28.87-1.11,7.88-.99,26.95-8.97,29.41,1.83,3.53,15.48-16.89,29.83-26.31,39.27-28.93,28.96-57.47,58.23-84.47,89.02Z"/>
      <path class="cls-1" d="M495.95,4.14c11.73-2.14,17.39,6.11,16,17-2.55,19.93-20.62,57.12-27.76,78.23-3.4,10.07-9.29,24.72-10.02,34.98-.29,4.15,1.57,14.81.89,16.87-1.18,3.57-10.8,3.98-14.12,3.43-18.36-3.07-7.85-32.24-4.2-43.72,10.1-31.72,27.49-65.58,34.21-97.79,1.05-5.01-1.91-7.74,5-9Z"/>
    </g>
  </g>
</svg>