<?xml version="1.0" encoding="UTF-8"?>
<svg id="Layer_2" data-name="Layer 2" xmlns="http://www.w3.org/2000/svg" viewBox="0 0 275.2 276.49">
  <defs>
    <style>
      .cls-1 {
        fill: #fff;
      }
    </style>
  </defs>
  <g id="Layer_1-2" data-name="Layer 1">
    <g>
      <path class="cls-1" d="M121.17.61c77.48-6.87,145,45.04,153.19,123.21,14.23,135.84-154.13,206.95-242.96,102.96C-37.73,145.86,14,10.11,121.17.61ZM125.17,18.61C43.84,25.26-5.23,115.33,28.51,188.67c46.12,100.22,193.06,89.47,223.12-16.59C275.16,89.06,210.64,11.61,125.17,18.61Z"/>
      <path class="cls-1" d="M103.87,94.31c-8.66,1.53-5.67,12.24-11.2,13.8-1.81.51-9.31,1.12-11.75,1.25-4.15.22-8.39-.24-12.54-.04,2.82-13.13,1.38-37.15,17.95-40.56,34.02.71,68.72-2.12,102.56-1.24,13.04.34,19.11,13.65,13.96,24.75l-89.45,88.55,60.25-.76c4.63-1.93,3.12-10.26,5.86-14.13.65-.91,4.83-3.62,5.38-3.62h20c.35,0,1.19,1.12,1.36,1.66.97,3.01-4.68,27.23-6.38,31.32-3.44,8.22-9.29,11.32-17.94,12.06-26.46,2.26-57.89-.55-85.08-.08-8.48.15-17.85,3.95-24.71-4.21-12.65-15.03,5.65-25.69,14.78-34.73,24.71-24.45,49.24-49.13,73.47-74.03h-56.5Z"/>
    </g>
  </g>
</svg>